<?xml version="1.0" standalone="no"?>
<!DOCTYPE svg PUBLIC "-//W3C//DTD SVG 20010904//EN"
 "http://www.w3.org/TR/2001/REC-SVG-20010904/DTD/svg10.dtd">
<svg version="1.0" xmlns="http://www.w3.org/2000/svg"
 width="50.000000pt" height="50.000000pt" viewBox="0 0 50.000000 50.000000"
 preserveAspectRatio="xMidYMid meet">

<g transform="translate(0.000000,50.000000) scale(0.100000,-0.100000)"
fill="#000000" stroke="none">
<path d="M56 444 c-24 -23 -24 -365 0 -388 23 -24 365 -24 388 0 24 23 24 365
0 388 -23 24 -365 24 -388 0z m109 -89 c0 -22 -31 -33 -47 -17 -17 17 -1 44
24 40 15 -2 23 -10 23 -23z m5 -150 l0 -95 -30 0 -30 0 0 95 0 95 30 0 30 0 0
-95z m90 85 c0 -7 6 -7 19 0 34 18 68 12 90 -16 17 -21 21 -41 21 -95 l0 -69
-30 0 c-30 0 -30 0 -30 59 0 66 -18 93 -48 74 -12 -7 -18 -27 -20 -72 -3 -60
-3 -61 -32 -61 l-30 0 0 95 0 95 30 0 c17 0 30 -5 30 -10z"/>
</g>
</svg>
